<svg xmlns="http://www.w3.org/2000/svg" width="49" height="49" viewBox="0 0 49 49">
    <g fill="none" fill-rule="nonzero">
        <rect width="28.408" height="28.408" fill="#A60038" rx="1.5"/>
        <path fill="#FF0056" d="M21.5 20h25.408a1.5 1.5 0 0 1 1.5 1.5v25.408a1.5 1.5 0 0 1-1.5 1.5H21.5a1.5 1.5 0 0 1-1.5-1.5V21.5a1.5 1.5 0 0 1 1.5-1.5z"/>
        <path fill="#B85366" d="M0 29c.828 2.044 2.152 3.833 3.974 5.366 1.82 1.534 3.973 2.13 6.457 1.79V31.81l7.202 7.41-7.202 7.412v-4.345c-2.65-.34-5.05-1.618-7.202-3.833C1.076 36.24 0 33.09 0 29z"/>
    </g>
</svg>
