<svg xmlns="http://www.w3.org/2000/svg" xmlns:xlink="http://www.w3.org/1999/xlink" width="140" height="32" viewBox="0 0 140 32">
    <defs>
        <path id="a" d="M.306.125h13.558v28.533H.306z"/>
        <path id="c" d="M0 .15h15.644v24.848H0z"/>
    </defs>
    <g fill="none" fill-rule="evenodd">
        <path fill="#52BFD7" d="M4.46 15.811c5.012.264 6.914-.45 6.914-.45 4.735-2.063 3.635-7.227 3.635-7.227C13.795 3.719 9.6 3.492 9.6 3.492l-9.596.023.036 15.58h.325c.825-3.992 4.096-3.284 4.096-3.284M23.84 18.868l-4.48.063s-4.168.93-2.137 5.475c0 0 .884 1.47 3.215 1.412l7.697-.012-.025-10.835-.328-.005c.029 1.189-.291 3.976-3.942 3.902"/>
        <path fill="#177A92" d="M2.748 28.904c.067.005.136.007.205.007.155 0 .307.003.455-.02v-.208l-.022-9.26v-.099a.37.37 0 0 1 .356-.376s.632-.008.632 0l4.687-.012.136-.007c5.044-.012 9.123-4.173 9.11-9.293-.011-5.121-4.11-9.263-9.153-9.25L2.892.392a2.852 2.852 0 0 0-1.854.69l.17.003 7.579-.018.371-.001c4.676-.012 8.476 3.828 8.487 8.576.011 4.748-3.77 8.606-8.447 8.617l-.138.006-4.555.011-.758.008a1.032 1.032 0 0 0-1.022 1.042v.099l.022 9.486"/>
        <path fill="#177A92" d="M1.425 28.476l-.02-9.048-.001-.099c-.003-1.319 1.045-2.39 2.34-2.394l.35.001 4.963-.012.133-.006c3.952-.01 7.148-3.27 7.14-7.283-.01-4.012-3.222-7.258-7.174-7.248H8.78l-8.5.02-.126.001a2.94 2.94 0 0 1 .318-.675l.098.004 8.248-.02h.337c4.317-.011 7.824 3.534 7.835 7.916.01 4.384-3.481 7.945-7.798 7.956l-.17.006-5.276.011c-.93.002-1.684.773-1.681 1.722v.098l.021 9.211-.004.14a2.832 2.832 0 0 1-.656-.304M26.772.959l.033 14.319v.187c.002 1.321-1.05 2.396-2.352 2.399h-.181l-3.983.01-.304.005c-2.432.006-4.4 2.013-4.394 4.483.005 2.47 1.982 4.468 4.415 4.462l.563-.002 7.33-.018.112-.004a2.936 2.936 0 0 1-.304.673l-.098.003-7.033.017-.568.002c-2.798.007-5.071-2.29-5.078-5.132-.007-2.84 2.256-5.148 5.054-5.155l.252.005 4.015-.01.2.001c.943-.002 1.706-.78 1.704-1.738l-.003-.174L26.117.645 26.11.487c.235.079.457.187.66.322l.003.15z"/>
        <g transform="translate(13.27 .212)">
            <mask id="b" fill="#fff">
                <use xlink:href="#a"/>
            </mask>
            <path fill="#177A92" d="M12.18.27l.034 14.82-.002.166a1.043 1.043 0 0 1-1.032 1.054l-.337.002-3.749.009-.35.005h-.032c-3.163.007-5.72 2.617-5.713 5.828.008 3.21 2.578 5.808 5.74 5.8l.564.003 6.377-.016.184-.002a2.857 2.857 0 0 1-1.875.707h-.243l-4.442.01-.563.002c-3.546.009-6.427-2.903-6.435-6.503-.008-3.6 2.859-6.525 6.404-6.533l.214-.001 4.125-.01.13-.005a.344.344 0 0 0 .34-.348l.003-.187L11.488.338l-.005-.197c.144-.023.29-.014.44-.014.085 0 .171.003.255.01l.002.134z" mask="url(#b)"/>
        </g>
        <g transform="translate(0 2.906)">
            <mask id="d" fill="#fff">
                <use xlink:href="#c"/>
            </mask>
            <path fill="#177A92" d="M9.133.15h-.492L0 .17l.002.694h.17L8.767.842l.1-.004h.242l.166.002c3.148.068 5.683 2.676 5.69 5.89.008 3.261-2.59 5.911-5.802 5.919l-.133.006-4.856.011-.457.001C1.67 12.673.013 14.36.018 16.435l.014 6.134-.002.517c.005.732.273 1.4.713 1.912l-.005-.34-.019-8.136v-.099c-.004-1.686 1.338-3.056 2.999-3.06l.36-.005 4.915-.012.171-.006c3.587-.009 6.488-2.969 6.48-6.61C15.635 3.086 12.721.14 9.134.15" mask="url(#d)"/>
        </g>
        <path fill="#177A92" d="M28.135 25.467l-.143.001-7.394.018-.583-.004c-1.703.004-3.087-1.394-3.09-3.123-.005-1.729 1.373-3.134 3.075-3.138l.214-.006 3.905-.01.35-.004c2.029-.004 3.67-1.679 3.665-3.74l-.031-12.194a2.952 2.952 0 0 0-.67-1.872l.004.226.032 13.714.002.076c.004 1.717-1.365 3.113-3.056 3.117l-.136.007-4.04.01-.24.005c-2.068.005-3.74 1.71-3.735 3.81.005 2.1 1.685 3.798 3.753 3.793l.558-.001 7.458-.018h.103l-.001-.667zM136.649 9.109l-4.528 12.25-4.676-12.25h-3.208l6.392 15.973-2.838 6.793h1.6c.974 0 1.848-.604 2.207-1.523l8.287-21.243h-3.236zM77.535 8.769c-1.082 0-2.083.262-2.97.777a5.702 5.702 0 0 0-1.754 1.487V9.205h-2.95v16.601h2.95v-9.95c.089-1.414.527-2.502 1.34-3.325.756-.768 1.632-1.141 2.678-1.141 2.642 0 3.927 1.455 3.927 4.45v9.966h2.95V15.653c0-4.568-2.076-6.884-6.17-6.884M98.174 13.014c.842 1.13 1.27 2.608 1.27 4.395v.31c0 1.731-.378 3.16-1.12 4.243-.848 1.188-1.997 1.765-3.513 1.765-1.61 0-2.843-.603-3.663-1.792-.734-1.072-1.092-2.523-1.092-4.433 0-1.91.366-3.338 1.118-4.365l.004-.006c.806-1.168 2.06-1.76 3.726-1.76 1.368 0 2.438.538 3.27 1.643zm1.208-1.448c-1.234-1.828-2.912-2.754-5-2.754-2.37 0-4.172.878-5.505 2.681-1.233 1.604-1.832 3.57-1.832 6.009 0 2.488.616 4.551 1.832 6.132 1.348 1.759 3.242 2.651 5.628 2.651 2.186 0 3.874-.827 5.03-2.46v2.024h2.798V2.976h-2.95v8.59zM116.68 12.971c.842 1.13 1.269 2.608 1.269 4.394v.312c0 1.73-.378 3.159-1.12 4.242-.847 1.188-1.996 1.765-3.512 1.765-1.61 0-2.844-.603-3.664-1.792-.734-1.073-1.09-2.523-1.09-4.433 0-1.91.365-3.338 1.117-4.365l.004-.006c.806-1.168 2.06-1.76 3.725-1.76 1.369 0 2.439.537 3.27 1.643zm1.207-1.448c-1.233-1.828-2.912-2.754-5-2.754-2.37 0-4.172.878-5.504 2.681-1.233 1.604-1.833 3.57-1.833 6.009 0 2.488.617 4.551 1.833 6.132 1.348 1.759 3.241 2.65 5.627 2.65 2.186 0 3.875-.826 5.031-2.459v2.024h2.797V2.976h-2.95v8.547zM63.848 17.51c0 2.898-1.576 6.017-5.037 6.017s-5.038-3.119-5.038-6.017c0-2.881 1.577-5.982 5.038-5.982 3.461 0 5.037 3.1 5.037 5.982m-5.037-8.74c-4.724 0-8.153 3.675-8.153 8.74 0 5.085 3.429 8.775 8.153 8.775s8.152-3.69 8.152-8.775c0-5.065-3.428-8.74-8.152-8.74M36.994 5.807h5.514c2.48 0 4.146 1.61 4.146 4.007 0 2.398-1.666 4.008-4.146 4.008h-5.514V5.807zm5.84-2.831h-6.672C34.92 2.976 33.91 4 33.91 5.263v18.253c0 1.262 1.007 2.284 2.25 2.284h.834v-9.147h5.84c4.123 0 7.001-2.812 7.001-6.839 0-4.026-2.878-6.838-7-6.838z"/>
    </g>
</svg>
