<svg xmlns="http://www.w3.org/2000/svg" width="105" height="29" viewBox="0 0 105 29">
    <g fill="none" fill-rule="evenodd">
        <path fill="#FFF" d="M-922-9041H998V194H-922z"/>
        <g fill-rule="nonzero">
            <path fill="#FFF" d="M1144.168-916.294c-173.884-67.462-575.599-152.964-904.657-22.487s-665.844 110.674-966.573-5.998c-300.728-116.673-585.547-91.684-770.907-36.153-74.58 22.344-234.053 774.877 464.969 974.739C-573.801 125.099 629.026-249.781 1174.9-38c624.082-483.122 85.19-833.32-30.732-878.294z"/>
            <path fill="#52C0D8" fill-opacity=".2" d="M-1311.2-977.485c-120.697 42.04-455.559 316.137 373.64 927.985C68.406-24.904 740.395 152.018 1041.48-72c93.69-69.708 321.375-894.45 293.05-903.964-179.033-60.127-460.739-92.224-773.85 16.836-313.112 109.06-651.623 120.421-965.955-18.191-314.33-138.613-724.88-63.226-905.925-.166z"/>
        </g>
        <path fill="#F8FAFB" fill-rule="nonzero" d="M-922-60H998v266H-922z"/>
        <path fill="#52BFD7" d="M4.596 15.673c5.164.267 7.124-.457 7.124-.457 4.878-2.089 3.745-7.32 3.745-7.32-1.251-4.47-5.575-4.7-5.575-4.7l-9.888.023.038 15.78h.335c.85-4.044 4.22-3.326 4.22-3.326M24.565 18.768l-4.617.064s-4.294.943-2.202 5.546c0 0 .911 1.49 3.313 1.43l7.931-.013-.026-10.973-.338-.005c.03 1.204-.3 4.026-4.061 3.951"/>
        <path fill="#177A92" d="M2.831 28.933c.07.005.14.007.211.007.16 0 .317.003.47-.021l-.001-.21-.022-9.379v-.1c0-.207.163-.376.367-.38 0 0 .65-.008.65-.001l4.83-.012.14-.006c5.197-.013 9.4-4.227 9.388-9.413C18.85 4.232 14.629.038 9.432.049L2.98.055a2.97 2.97 0 0 0-1.91.699l.175.004L9.054.74l.382-.002c4.819-.011 8.734 3.878 8.745 8.686.012 4.809-3.885 8.716-8.703 8.727l-.143.007-4.693.011-.78.008a1.054 1.054 0 0 0-1.054 1.055v.1l.023 9.608"/>
        <path fill="#177A92" d="M1.469 28.5l-.022-9.164v-.1a2.418 2.418 0 0 1 2.41-2.425l.361.001 5.114-.012.137-.007c4.072-.01 7.366-3.311 7.356-7.376-.01-4.064-3.318-7.35-7.39-7.34h-.388l-8.758.02h-.13c.08-.242.191-.472.327-.683l.101.004 8.498-.02.348-.001c4.448-.01 8.062 3.58 8.073 8.019.01 4.44-3.587 8.046-8.035 8.057l-.176.006-5.436.011a1.738 1.738 0 0 0-1.732 1.744v.1l.023 9.329-.004.142a2.956 2.956 0 0 1-.676-.308M27.586.63l.034 14.502-.001.19a2.426 2.426 0 0 1-2.423 2.43h-.187l-4.103.01-.313.005a4.534 4.534 0 0 0-4.529 4.54 4.534 4.534 0 0 0 4.55 4.52l.58-.003 7.553-.017.115-.005c-.075.242-.181.471-.313.682l-.1.003-7.248.017-.585.002a5.214 5.214 0 0 1-5.232-5.197 5.214 5.214 0 0 1 5.207-5.222l.26.005 4.137-.01.206.001a1.757 1.757 0 0 0 1.755-1.76l-.003-.176L26.911.312l-.008-.16c.242.08.47.19.68.326l.003.152z"/>
        <path fill="#177A92" d="M26.224.147l.035 15.008-.002.17a1.066 1.066 0 0 1-1.064 1.067l-.347.002-3.863.009-.36.005h-.034a5.895 5.895 0 0 0-5.886 5.903c.008 3.252 2.656 5.882 5.914 5.875l.58.002 6.572-.015.19-.003a2.969 2.969 0 0 1-1.933.715l-.25.001-4.577.011-.58.001c-3.654.01-6.622-2.94-6.63-6.586-.01-3.646 2.945-6.609 6.599-6.617h.22l4.25-.01.133-.007a.351.351 0 0 0 .351-.351l.003-.19L25.51.215l-.004-.2c.147-.022.298-.013.452-.014.089 0 .177.004.264.011l.002.135zM9.411 2.754h-.507L0 2.774l.002.704.176-.001 8.854-.021.103-.004h.25l.171.002a5.986 5.986 0 0 1 5.863 5.965 5.986 5.986 0 0 1-5.978 5.995l-.138.006-5.003.012-.47.001a3.813 3.813 0 0 0-3.811 3.814l.015 6.213-.002.524a2.96 2.96 0 0 0 .734 1.937l-.005-.345-.02-8.24v-.1a3.094 3.094 0 0 1 3.09-3.1l.37-.005 5.066-.012.175-.006c3.697-.009 6.686-3.006 6.677-6.696-.008-3.688-3.012-6.672-6.708-6.663"/>
        <path fill="#177A92" d="M28.99 25.452l-.147.001-7.62.018-.6-.004a3.174 3.174 0 0 1-3.184-3.163 3.174 3.174 0 0 1 3.17-3.178l.22-.006 4.022-.01.36-.004a3.782 3.782 0 0 0 3.778-3.787l-.033-12.352a2.956 2.956 0 0 0-.69-1.895l.004.229.033 13.89.002.076a3.152 3.152 0 0 1-3.148 3.157l-.14.007-4.164.01-.246.005a3.854 3.854 0 0 0-3.85 3.86 3.854 3.854 0 0 0 3.868 3.84h.575l7.684-.019.107.001-.001-.676z"/>
        <path fill="#52BFD7" d="M74.25 5.499c-.629 0-1.167.189-1.641.574a2.945 2.945 0 0 0-.671.744c-.009.013-.028.007-.028-.008V5.747a.016.016 0 0 0-.016-.015h-1.533a.016.016 0 0 0-.016.015v8.851c0 .009.007.016.016.016h1.533a.016.016 0 0 0 .016-.016V9.892c0-.789.214-1.43.658-1.969.42-.559.938-.83 1.582-.83.45 0 .858.058 1.246.177l.161.05V5.74l-.076-.032c-.33-.139-.744-.209-1.23-.209M80.252 12.237V7.119h1.716V5.75h-1.716V3.42H78.68V5.75h-1.4V7.12h1.4v5.397c0 1.343.696 2.095 2.012 2.095l.724.002h.423c.147 0 .281 0 .413-.002l.12-.001v-1.412h-1.352c-.509 0-.767-.323-.767-.961M65.078 10.464c-1.89.033-2.81.627-2.81 1.816 0 .374.142.661.447.905.32.24.737.36 1.24.36.796 0 1.486-.254 2.109-.776.597-.5.9-1.074.9-1.707v-.63l-1.886.032zm-1.408 4.34c-.898 0-1.598-.22-2.142-.674a2.277 2.277 0 0 1-.84-1.816c0-1.034.404-1.79 1.237-2.309.724-.48 1.755-.733 3.066-.75l1.973-.031v-.349c0-1.39-.705-2.066-2.156-2.066-.637 0-1.127.12-1.498.366-.426.252-.696.636-.827 1.174l-.02.086-1.529-.117.024-.115c.19-.935.657-1.638 1.386-2.087.66-.415 1.493-.617 2.548-.617 1.275 0 2.198.327 2.822 1.002.529.599.797 1.414.797 2.424v5.646h-1.463v-1.254l-.04.046a4.288 4.288 0 0 1-1.128.894 4.517 4.517 0 0 1-2.21.548zM40.112 7.338c-1.495-.405-2.787-.755-2.787-1.826 0-1.039.958-1.764 2.329-1.764.97 0 2.345.241 3.374 1.39l.11.123 1.085-1.32-.086-.09c-1.08-1.134-2.586-1.734-4.357-1.734-2.484 0-4.288 1.466-4.288 3.485 0 2.421 2.177 3.006 4.097 3.52 1.623.437 3.024.813 3.024 2.126 0 .94-.706 1.944-2.689 1.944-1.999 0-3.226-1.172-3.66-1.676l-.113-.13-1.08 1.378.078.088c1.12 1.26 2.798 1.953 4.721 1.953 3.374 0 4.576-1.893 4.576-3.665 0-2.628-2.403-3.28-4.334-3.802M55.575 5.499c-.625 0-1.143.137-1.576.414-.422.225-.798.584-1.119 1.068-.521-.984-1.431-1.482-2.708-1.482-.899 0-1.668.375-2.293 1.115v-.883h-1.598v8.84h1.598V9.214c0-.65.19-1.2.569-1.64.367-.458.827-.68 1.408-.68 1.24 0 1.844.7 1.844 2.138v5.539h1.598V9.065c0-.668.18-1.186.55-1.588.329-.387.77-.583 1.312-.583.705 0 1.193.175 1.494.534.298.344.449.884.449 1.604v5.539h1.598V8.816c0-.996-.285-1.813-.853-2.432-.597-.595-1.34-.885-2.273-.885"/>
        <path fill="#177A92" d="M87.826 24.249c0 1.323-.732 2.747-2.34 2.747-1.607 0-2.34-1.424-2.34-2.747 0-1.316.733-2.731 2.34-2.731 1.608 0 2.34 1.415 2.34 2.73m-2.34-3.99c-2.194 0-3.786 1.679-3.786 3.99 0 2.322 1.592 4.007 3.786 4.007s3.787-1.685 3.787-4.006c0-2.312-1.593-3.99-3.787-3.99"/>
        <path stroke="#177A92" stroke-width=".5" d="M87.826 24.249c0 1.323-.732 2.747-2.34 2.747-1.607 0-2.34-1.424-2.34-2.747 0-1.316.733-2.731 2.34-2.731 1.608 0 2.34 1.415 2.34 2.73zm-2.34-3.99c-2.194 0-3.786 1.678-3.786 3.99 0 2.321 1.592 4.006 3.786 4.006s3.787-1.685 3.787-4.006c0-2.312-1.593-3.99-3.787-3.99z"/>
        <path fill="#177A92" d="M79.305 24.249c0 1.323-.732 2.747-2.34 2.747-1.607 0-2.34-1.424-2.34-2.747 0-1.316.733-2.731 2.34-2.731 1.608 0 2.34 1.415 2.34 2.73m-2.34-3.99c-2.194 0-3.786 1.679-3.786 3.99 0 2.322 1.592 4.007 3.786 4.007s3.787-1.685 3.787-4.006c0-2.312-1.593-3.99-3.787-3.99"/>
        <path stroke="#177A92" stroke-width=".5" d="M79.305 24.249c0 1.323-.732 2.747-2.34 2.747-1.607 0-2.34-1.424-2.34-2.747 0-1.316.733-2.731 2.34-2.731 1.608 0 2.34 1.415 2.34 2.73zm-2.34-3.99c-2.194 0-3.786 1.678-3.786 3.99 0 2.321 1.592 4.006 3.786 4.006s3.787-1.685 3.787-4.006c0-2.312-1.593-3.99-3.787-3.99z"/>
        <path fill="#177A92" d="M43.052 17.626H35.98a.906.906 0 0 0-.908.905v.44h3.24v8.07c0 .557.453 1.01 1.012 1.01h.475v-9.08h3.254v-1.345z"/>
        <path stroke="#177A92" stroke-width=".5" d="M43.052 17.626H35.98a.906.906 0 0 0-.908.905v.44h3.24v8.07c0 .557.453 1.01 1.012 1.01h.475v-9.08h3.254v-1.345z"/>
        <path fill="#177A92" d="M48.949 23.65h-4.63c.096-.937.765-2.23 2.305-2.23 1.62 0 2.266 1.295 2.325 2.23m-2.31-3.394c-2.141 0-3.757 1.71-3.757 3.977 0 2.35 1.602 3.991 3.895 3.991 1.187 0 2.23-.407 3.02-1.177l.066-.065-.683-.928-.089.091a3.118 3.118 0 0 1-2.222.915c-1.594 0-2.411-1.155-2.534-2.337h5.969v-.399c0-2.433-1.473-4.068-3.665-4.068"/>
        <path stroke="#177A92" stroke-width=".5" d="M48.949 23.65h-4.63c.096-.937.765-2.23 2.305-2.23 1.62 0 2.266 1.295 2.325 2.23zm-2.31-3.394c-2.141 0-3.757 1.71-3.757 3.977 0 2.35 1.602 3.991 3.895 3.991 1.187 0 2.23-.407 3.02-1.177l.066-.065-.683-.928-.089.091a3.118 3.118 0 0 1-2.222.915c-1.594 0-2.411-1.155-2.534-2.337h5.969v-.399c0-2.433-1.473-4.068-3.665-4.068z"/>
        <path fill="#177A92" d="M61.821 25.978V21.49h1.505v-1.2H61.82v-2.043h-1.379v2.044h-1.228v1.2h1.228v4.732c0 1.178.61 1.837 1.764 1.837l.635.001.37.001c.13 0 .247 0 .363-.002h.105V26.82h-1.186c-.445 0-.672-.284-.672-.843"/>
        <path stroke="#177A92" stroke-width=".5" d="M61.821 25.978V21.49h1.505v-1.2H61.82v-2.043h-1.379v2.044h-1.228v1.2h1.228v4.732c0 1.178.61 1.837 1.764 1.837l.635.001.37.001c.13 0 .247 0 .363-.002h.105V26.82h-1.186c-.445 0-.672-.284-.672-.843z"/>
        <path fill="#177A92" d="M101.398 23.485c-.925-.22-1.724-.411-1.724-1.017 0-.625.634-1.06 1.54-1.06.87 0 1.668.335 2.136.897l.09.11.667-.988-.06-.062c-.494-.505-1.386-1.107-2.832-1.107-1.978 0-2.862 1.125-2.862 2.24 0 1.604 1.459 1.958 2.746 2.27.997.242 1.856.45 1.856 1.17s-.637 1.168-1.663 1.168c-1.023 0-1.926-.514-2.367-1.023l-.09-.103-.713 1.012.06.063c.767.796 1.803 1.2 3.079 1.2 1.832 0 3.016-.922 3.016-2.348 0-1.735-1.596-2.116-2.88-2.422"/>
        <path stroke="#177A92" stroke-width=".5" d="M101.398 23.485c-.925-.22-1.724-.411-1.724-1.017 0-.625.634-1.06 1.54-1.06.87 0 1.668.335 2.136.897l.09.11.667-.988-.06-.062c-.494-.505-1.386-1.107-2.832-1.107-1.978 0-2.862 1.125-2.862 2.24 0 1.604 1.459 1.958 2.746 2.27.997.242 1.856.45 1.856 1.17s-.637 1.168-1.663 1.168c-1.023 0-1.926-.514-2.367-1.023l-.09-.103-.713 1.012.06.063c.767.796 1.803 1.2 3.079 1.2 1.832 0 3.016-.922 3.016-2.348 0-1.735-1.596-2.116-2.88-2.422z"/>
        <path fill="#177A92" d="M70.909 24.234c0 .842-.172 1.525-.508 2.029-.383.545-.957.82-1.707.82-.71 0-1.26-.27-1.636-.807-.356-.49-.536-1.144-.536-1.943v-.142c0-.853.197-1.51.604-2.01l.003-.003c.373-.506.871-.752 1.522-.752.764 0 1.327.265 1.723.81.36.483.535 1.137.535 1.998m.55-2.75c-.613-.815-1.476-1.229-2.565-1.229-.973 0-1.754.424-2.329 1.26v-4.068h-1.374v10.608h1.302v-.92c.53.744 1.316 1.12 2.344 1.12 1.096 0 1.978-.408 2.622-1.214.566-.743.852-1.687.852-2.807 0-1.083-.286-2.008-.852-2.75"/>
        <path stroke="#177A92" stroke-width=".5" d="M70.909 24.234c0 .842-.172 1.525-.508 2.029-.383.545-.957.82-1.707.82-.71 0-1.26-.27-1.636-.807-.356-.49-.536-1.144-.536-1.943v-.142c0-.853.197-1.51.604-2.01l.003-.003c.373-.506.871-.752 1.522-.752.764 0 1.327.265 1.723.81.36.483.535 1.137.535 1.998zm.55-2.75c-.613-.815-1.476-1.229-2.565-1.229-.973 0-1.754.424-2.329 1.26v-4.068h-1.374v10.608h1.302v-.92c.53.744 1.316 1.12 2.344 1.12 1.096 0 1.978-.408 2.622-1.214.566-.743.852-1.687.852-2.807 0-1.083-.286-2.008-.852-2.75z"/>
        <path fill="#177A92" d="M95.721 20.438L91.993 24.2v-6.579h-1.391v10.45h1.391V25.89l1.112-1.082 2.609 3.263h1.784l-3.392-4.154 3.41-3.479z"/>
        <path stroke="#177A92" stroke-width=".5" d="M95.721 20.438L91.993 24.2v-6.579h-1.391v10.45h1.391V25.89l1.112-1.082 2.609 3.263h1.784l-3.392-4.154 3.41-3.479z"/>
        <path fill="#177A92" d="M58.126 20.438h-1.62l-2.011 2.734-1.996-2.734h-1.636l2.776 3.717-2.93 3.916h1.621l2.165-2.948 2.18 2.948h1.621l-2.945-3.916z"/>
        <path stroke="#177A92" stroke-width=".5" d="M58.126 20.438h-1.62l-2.011 2.734-1.996-2.734h-1.636l2.776 3.717-2.93 3.916h1.621l2.165-2.948 2.18 2.948h1.621l-2.945-3.916z"/>
        <path fill="#177A92" d="M101.396 23.472c-.917-.22-1.708-.408-1.708-1 0-.615.625-1.044 1.522-1.044.863 0 1.654.333 2.117.89l.103.123.681-1.01-.068-.07c-.494-.504-1.386-1.107-2.833-1.107-1.981 0-2.868 1.13-2.868 2.248 0 1.61 1.46 1.964 2.75 2.276.987.24 1.84.446 1.84 1.153 0 .71-.631 1.15-1.645 1.15-1.016 0-1.912-.51-2.35-1.015l-.1-.115-.73 1.032.07.072c.766.796 1.802 1.2 3.079 1.2 1.835 0 3.02-.924 3.02-2.355 0-1.741-1.597-2.123-2.88-2.428"/>
        <path stroke="#177A92" stroke-width=".5" d="M101.396 23.472c-.917-.22-1.708-.408-1.708-1 0-.615.625-1.044 1.522-1.044.863 0 1.654.333 2.117.89l.103.123.681-1.01-.068-.07c-.494-.504-1.386-1.107-2.833-1.107-1.981 0-2.868 1.13-2.868 2.248 0 1.61 1.46 1.964 2.75 2.276.987.24 1.84.446 1.84 1.153 0 .71-.631 1.15-1.645 1.15-1.016 0-1.912-.51-2.35-1.015l-.1-.115-.73 1.032.07.072c.766.796 1.802 1.2 3.079 1.2 1.835 0 3.02-.924 3.02-2.355 0-1.741-1.597-2.123-2.88-2.428z"/>
        <path fill-rule="nonzero" stroke="#F00A0A" stroke-width="3" d="M-10.5-14.5h129v46h-129z"/>
    </g>
</svg>
