<?xml version="1.0" encoding="UTF-8"?>
<svg width="120px" height="29px" viewBox="0 0 120 29" version="1.1" xmlns="http://www.w3.org/2000/svg" xmlns:xlink="http://www.w3.org/1999/xlink">
    <!-- Generator: sketchtool 52.5 (67469) - http://www.bohemiancoding.com/sketch -->
    <title>FF4CEA35-A7B4-415F-AAAE-D46889B1C3A8</title>
    <desc>Created with sketchtool.</desc>
    <g id="ponddy.ai" stroke="none" stroke-width="1" fill="none" fill-rule="evenodd">
        <g id="Ponddy" transform="translate(-884.000000, -4742.000000)">
            <g id="Group-3" transform="translate(0.000000, 4661.000000)">
                <g id="footer-copy">
                    <g id="Group" transform="translate(718.000000, 81.000000)">
                        <g id="tutors-logo" transform="translate(166.000000, 0.000000)">
                            <path d="M4.60902857,15.809514 C9.78891429,16.0735718 11.7548571,15.3592013 11.7548571,15.3592013 C16.6477714,13.296587 15.5115429,8.13230473 15.5115429,8.13230473 C14.256,3.71809463 9.9192,3.49142261 9.9192,3.49142261 L0.0024,3.51432558 L0.0401142857,19.0937322 L0.375428571,19.0930585 C1.2288,15.1012061 4.60902857,15.809514 4.60902857,15.809514" id="Fill-1" fill="#50C0E1"></path>
                            <path d="M24.6380571,18.8657803 L20.0074286,18.9291002 C20.0074286,18.9291002 15.7004571,19.8593649 17.7990857,24.4032462 C17.7990857,24.4032462 18.7124571,25.8740882 21.1213714,25.8158204 L29.0766857,25.8030217 L29.0506286,14.9695814 L28.7115429,14.9645293 C28.7413714,16.1531259 28.4105143,18.9398781 24.6380571,18.8657803" id="Fill-3" fill="#50C0E1"></path>
                            <path d="M2.83916571,28.9009848 C2.90945143,28.9057001 2.98008,28.9080577 3.05139429,28.9080577 C3.21150857,28.9073841 3.36888,28.911089 3.52179429,28.8868388 L3.52076571,28.6800385 L3.49882286,19.4211772 L3.49916571,19.3224924 C3.49882286,19.1173761 3.66270857,18.9503192 3.86705143,18.9459407 C3.86705143,18.9459407 4.51985143,18.9378573 4.51985143,18.945267 L9.36408,18.9341524 L9.50465143,18.9274162 C14.7171086,18.9152911 18.9321943,14.7546977 18.9198514,9.63453729 C18.9075086,4.5143769 14.6725371,0.373318364 9.46042286,0.385443464 L2.98899429,0.391506014 C2.25870857,0.393190056 1.59013714,0.65219567 1.07276571,1.08095269 L1.24865143,1.08499439 L9.08088,1.06680674 L9.46419429,1.06512269 C14.2967657,1.05400802 18.2235086,4.8936231 18.2351657,9.64059984 C18.24648,14.3882502 14.3382514,18.2457161 9.50568,18.2568308 L9.36270857,18.263567 L4.65528,18.2743448 L3.87253714,18.2820914 C3.28796571,18.2834387 2.81516571,18.7495814 2.81653714,19.3238396 L2.81619429,19.4225245 L2.83882286,28.9080577" id="Fill-5" fill="#1B7892"></path>
                            <path d="M1.47274286,28.472733 L1.45114286,19.4260609 L1.45045714,19.3273761 C1.44737143,18.0084346 2.53011429,16.9367105 3.86897143,16.9333424 L4.23034286,16.9343528 L9.35948571,16.9225646 L9.49731429,16.9161652 C13.5814286,16.9067346 16.8848571,13.6464298 16.8756,9.63403208 C16.8656571,5.62197113 13.5468,2.37715958 9.46268571,2.38659022 L9.07388571,2.38726383 L0.2892,2.40747233 L0.159257143,2.40780914 C0.239485714,2.1676648 0.350914286,1.9416664 0.487714286,1.73318204 L0.588514286,1.73688693 L9.11228571,1.71735204 L9.46097143,1.71600481 C13.9225714,1.70556375 17.5472571,5.25013472 17.5578857,9.63268484 C17.5685143,14.015235 13.9606286,17.5763095 9.49902857,17.5867506 L9.3228,17.59315 L3.87034286,17.6042646 C2.90862857,17.6066223 2.13137143,18.3772398 2.13342857,19.3256921 L2.13342857,19.4243769 L2.15537143,28.6337273 L2.1516,28.7745132 C1.91125714,28.7007522 1.68394286,28.5980257 1.47377143,28.4700385" id="Fill-7" fill="#1B7892"></path>
                            <path d="M27.6681943,0.958691259 L27.70248,15.276077 L27.7011086,15.4630056 C27.7041943,16.7846415 26.6163086,17.8583865 25.27128,17.8617546 L25.08408,17.8624282 L20.9684229,17.8718589 L20.6540229,17.876911 C18.1398514,17.8829735 16.1060229,19.8896776 16.1121943,22.35983 C16.1180229,24.8296455 18.1611086,26.8272558 20.67528,26.8211933 L21.2577943,26.8191724 L28.8325371,26.8016584 L28.9484229,26.7976167 C28.8726514,27.0364138 28.7660229,27.2620754 28.63368,27.4705597 L28.53288,27.4732542 L21.2643086,27.4897578 L20.6769943,27.4921155 C17.78568,27.4988516 15.4364229,25.2018188 15.4295657,22.3611772 C15.4223657,19.5208725 17.7609943,17.2130617 20.6523086,17.2059888 L20.9135657,17.2113777 L25.0617943,17.2019471 L25.2695657,17.2019471 C26.2439657,17.1999262 27.0321943,16.421899 27.0294514,15.4646897 L27.0267086,15.2908966 L26.9910514,0.644785886 L26.9831657,0.486485966 C27.2255657,0.565299118 27.4545943,0.674088212 27.6651086,0.808474739 L27.6681943,0.958691259 Z" id="Fill-9" fill="#1B7892"></path>
                            <path d="M26.3017714,0.482107458 L26.3374286,15.2986431 L26.3353714,15.4663737 C26.3367429,16.0470313 25.8588,16.518563 25.2680571,16.5199102 L24.9200571,16.5215942 L21.0454286,16.5303512 L20.6840571,16.5354034 L20.6508,16.5354034 C17.3823429,16.54315 14.7385714,19.1520674 14.7468,22.3628613 C14.754,25.5736552 17.4101143,28.1704475 20.6789143,28.1630377 L21.2610857,28.1653953 L27.8521714,28.1499022 L28.0414286,28.1475445 C27.5209714,28.5864058 26.8438286,28.8524844 26.1039429,28.8541684 L25.8529714,28.854842 L21.2624571,28.8652831 L20.6802857,28.8666303 C17.0161714,28.8753873 14.0384571,25.964016 14.0298857,22.3645453 C14.0216571,18.7647378 16.9846286,15.840231 20.6490857,15.8314739 L20.8698857,15.8308003 L25.1322857,15.8210329 L25.266,15.8156439 C25.4610857,15.8149703 25.6188,15.6597017 25.6184571,15.4680577 L25.6212,15.2807923 L25.5858857,0.549469126 L25.5814286,0.352099439 C25.7295429,0.329870088 25.8807429,0.338290297 26.0357143,0.337953488 C26.1245143,0.33761668 26.2126286,0.34165838 26.3000571,0.348731355 L26.3017714,0.482107458 Z" id="Fill-11" fill="#1B7892"></path>
                            <path d="M9.43882286,3.05586207 L8.93002286,3.05586207 L-3.42857143e-05,3.07539695 L0.00133714286,3.77023256 L0.178251429,3.76888532 L9.05893714,3.74834002 L9.16179429,3.74463512 L9.41310857,3.74429832 L9.58453714,3.74665597 C12.8375657,3.81435445 15.4573371,6.42226143 15.4652229,9.63608661 C15.4731086,12.897065 12.7885371,15.5467362 9.46899429,15.5544828 L9.33082286,15.5605453 L4.31242286,15.5719968 L3.84030857,15.5730072 C1.72453714,15.5780593 0.0133371429,17.2641219 0.01848,19.3388613 L0.0332228571,25.4721411 L0.0315085714,25.9898156 C0.0356228571,26.7217001 0.312994286,27.389591 0.767965714,27.9015397 L0.76248,27.5606897 L0.74328,19.4260946 L0.742594286,19.3274098 C0.73848,17.641684 2.12602286,16.2718845 3.84202286,16.2678428 L4.21333714,16.2624539 L9.29413714,16.2506656 L9.47070857,16.2439294 C13.17768,16.2355092 16.1759657,13.2763111 16.1673943,9.63406576 C16.15848,5.99249399 13.1461371,3.04710505 9.43882286,3.05586207" id="Fill-14" fill="#1B7892"></path>
                            <path d="M29.0761029,25.4641588 L28.9290171,25.465506 L21.2870743,25.4833569 L20.6846743,25.479652 C18.9247886,25.4836937 17.4947314,24.0852654 17.4906171,22.3564282 C17.48616,20.6279278 18.9100457,19.2227634 20.6695886,19.2187217 L20.8907314,19.2126592 L24.9254743,19.2035654 L25.2868457,19.1995237 C27.3841029,19.1948083 29.08056,17.5205341 29.0754171,15.4602775 L29.0428457,3.26646832 C29.0407886,2.55411868 28.7815886,1.90205774 28.3513029,1.39482438 L28.3547314,1.62115958 L28.3873029,15.3336375 L28.38936,15.4090826 C28.3938171,17.1264683 26.9798743,18.5218653 25.2316457,18.525907 L25.0914171,18.5326431 L20.9154171,18.5424106 L20.6682171,18.5477995 C18.5308457,18.5525148 16.8025029,20.2587859 16.8079886,22.3577755 C16.8124457,24.4577755 18.54936,26.1556263 20.6863886,26.1502374 L21.26376,26.1488901 L28.9705029,26.1310393 L29.0778171,26.1317129 L29.0761029,25.4641588 Z" id="Fill-17" fill="#1B7892"></path>
                            <path d="M51.7126971,4.35243945 L36.86184,4.35243945 C35.8099543,4.35243945 34.9572686,5.18974499 34.9572686,6.22307298 L34.9572686,7.13211868 L41.7581829,7.13211868 L41.7581829,23.8074996 C41.7581829,24.9610682 42.7099543,25.8960481 43.88424,25.8960481 L44.8792114,25.8960481 L44.8792114,7.13211868 L51.7126971,7.13211868 L51.7126971,4.35243945 Z" id="Fill-19" fill="#1B7892"></path>
                            <path d="M72.8955086,21.9746897 L72.8955086,12.7286271 C72.8955086,12.7131339 72.9081943,12.7010088 72.9236229,12.7010088 L76.02648,12.7010088 C76.0419086,12.7010088 76.0542514,12.6888837 76.0542514,12.6733905 L76.0542514,10.2500545 C76.0542514,10.235235 76.0419086,10.2224362 76.02648,10.2224362 L72.9236229,10.2224362 C72.9081943,10.2224362 72.8955086,10.2099743 72.8955086,10.194818 L72.8955086,6.02546752 C72.8955086,6.00997434 72.8831657,5.99751243 72.8677371,5.99751243 L70.0281943,5.99751243 C70.0127657,5.99751243 70.00008,6.00997434 70.00008,6.02546752 L70.00008,10.194818 C70.00008,10.2099743 69.9877371,10.2224362 69.9723086,10.2224362 L67.4492229,10.2224362 C67.4337943,10.2224362 67.4211086,10.235235 67.4211086,10.2500545 L67.4211086,12.6733905 C67.4211086,12.6888837 67.4337943,12.7010088 67.4492229,12.7010088 L69.9723086,12.7010088 C69.9877371,12.7010088 70.00008,12.7131339 70.00008,12.7286271 L70.00008,22.4809126 C70.00008,24.9150265 71.2806514,26.2784266 73.7036229,26.2784266 C74.2268229,26.2784266 74.6605371,26.279437 75.0359657,26.2807843 C75.3243086,26.2814579 75.5787086,26.2824683 75.8142514,26.2824683 C76.0861371,26.2824683 76.3323086,26.2814579 76.5750514,26.2784266 L76.7951657,26.2757322 L76.7951657,23.7452911 C76.7951657,23.7297979 76.7828229,23.7176728 76.7673943,23.7176728 L74.3067086,23.7176728 C73.3703657,23.7176728 72.8955086,23.1312895 72.8955086,21.9746897" id="Fill-21" fill="#1B7892"></path>
                            <path d="M90.4984114,18.019482 C90.4984114,20.7637963 88.9541829,23.7176055 85.5636686,23.7176055 C82.1741829,23.7176055 80.6302971,20.7637963 80.6302971,18.019482 C80.6302971,15.2899872 82.1741829,12.3530184 85.5636686,12.3530184 C88.9541829,12.3530184 90.4984114,15.2899872 90.4984114,18.019482 M85.5636686,9.79462229 C80.97144,9.79462229 77.63784,13.2539808 77.63784,18.019482 C77.63784,22.8031708 80.97144,26.2756648 85.5636686,26.2756648 C90.1569257,26.2756648 93.4905257,22.8031708 93.4905257,18.019482 C93.4905257,13.2539808 90.1569257,9.79462229 85.5636686,9.79462229" id="Fill-23" fill="#1B7892"></path>
                            <path d="M113.880343,16.4446672 C111.943886,15.9896391 110.271086,15.5969206 110.271086,14.3487089 C110.271086,13.0617642 111.5976,12.1631596 113.496686,12.1631596 C115.317257,12.1631596 116.988,12.8549639 117.966514,14.0139214 L118.1568,14.2389094 L119.552229,12.2035766 L119.425714,12.0759262 C118.393029,11.0351885 116.525486,9.79472334 113.496686,9.79472334 C109.357029,9.79472334 107.503886,12.1139856 107.503886,14.4123657 C107.503886,17.7161187 110.560114,18.4456455 113.255657,19.0896231 C115.340914,19.587089 117.1416,20.0168565 117.1416,21.5001604 C117.1416,22.9851484 115.806857,23.9073296 113.658171,23.9073296 C111.516343,23.9073296 109.625486,22.8490778 108.701486,21.7999198 L108.515314,21.5880674 L107.020457,23.6735846 L107.147657,23.8035926 C108.752914,25.4438492 110.921829,26.275429 113.593714,26.275429 C117.4296,26.275429 119.908457,24.3761668 119.908457,21.4368404 C119.908457,17.859599 116.566286,17.0751724 113.880343,16.4446672" id="Fill-25" fill="#1B7892"></path>
                            <path d="M62.1089143,19.6936552 C62.1089143,19.6953392 62.1089143,19.6966864 62.1085714,19.6983705 C61.9368,20.9324362 61.4458286,21.9543128 60.6521143,22.7330136 C59.8724571,23.4706239 59.0002286,23.8441443 58.0597714,23.8441443 C56.7473143,23.8441443 55.7790857,23.5046415 55.1821714,22.8347298 C54.6044571,22.1863737 54.312,21.1503512 54.312,19.7549543 L54.312,10.2502229 C54.312,10.2350666 54.2996571,10.2226047 54.2842286,10.2226047 L51.5053714,10.2226047 C51.4899429,10.2226047 51.4772571,10.2350666 51.4772571,10.2502229 L51.4772571,19.8718268 C51.4772571,24.1210008 53.4411429,26.2755638 57.3137143,26.2755638 C59.2179429,26.2755638 60.8112,25.5190922 62.0581714,24.0253472 C62.0746286,24.0054755 62.1065143,24.0159166 62.1065143,24.041514 L62.1065143,25.8683625 C62.1065143,25.8835188 62.1192,25.8959808 62.1346286,25.8959808 L64.9131429,25.8959808 C64.9285714,25.8959808 64.9409143,25.8835188 64.9409143,25.8683625 L64.9409143,10.2502229 C64.9409143,10.2350666 64.9285714,10.2226047 64.9131429,10.2226047 L62.1346286,10.2226047 C62.1192,10.2226047 62.1065143,10.2350666 62.1065143,10.2502229 L62.1089143,19.6936552 Z" id="Fill-27" fill="#1B7892"></path>
                            <path d="M102.83928,9.81243945 C101.710937,9.81243945 100.74648,10.1448693 99.8961943,10.8255589 C99.4449943,11.1677562 99.04248,11.6072911 98.6941371,12.1374274 C98.6787086,12.1606672 98.6433943,12.1512366 98.6433943,12.1239551 L98.6433943,10.2502903 C98.6433943,10.2351339 98.6313943,10.222672 98.6159657,10.222672 L95.8662514,10.222672 C95.8508229,10.222672 95.8381371,10.2351339 95.8381371,10.2502903 L95.8381371,25.8684298 C95.8381371,25.8835862 95.8508229,25.8960481 95.8662514,25.8960481 L98.6159657,25.8960481 C98.6313943,25.8960481 98.6433943,25.8835862 98.6433943,25.8684298 L98.6433943,17.5640834 C98.6433943,16.1727281 99.0270514,15.0393681 99.82248,14.090579 C100.576423,13.1037306 101.504537,12.6247891 102.659966,12.6247891 C103.466709,12.6247891 104.197337,12.726842 104.89368,12.9370104 L105.182366,13.0242438 L105.182366,10.2378284 L105.045909,10.1812446 C104.453794,9.93672173 103.711166,9.81243945 102.83928,9.81243945" id="Fill-29" fill="#1B7892"></path>
                        </g>
                    </g>
                </g>
            </g>
        </g>
    </g>
</svg>