<svg xmlns="http://www.w3.org/2000/svg" width="1920" height="214" viewBox="0 0 1920 214">
    <g fill="none" fill-rule="nonzero">
        <path fill="#FFF" d="M2066.168 139.706c-173.884-67.462-575.599-152.964-904.657-22.487s-665.844 110.674-966.573-5.998C-105.79-5.452-390.609 19.537-575.969 75.068-650.549 97.412-810.022 849.945-111 1049.807 348.199 1181.099 1551.026 806.219 2096.9 1018c624.082-483.122 85.19-833.32-30.732-878.294z"/>
        <path fill="#52BFD7" d="M2066.819 139.702c-173.886-67.459-575.603-152.959-904.664-22.486-329.061 130.473-665.85 110.672-966.581-5.998C-105.157-5.45-389.978 19.538-575.34 75.068-620.86 88.703-543.748 391.681-344 984l2465.22 24c41.015-548.883 22.881-838.316-54.401-868.298z"/>
        <path fill="#52C0D8" fill-opacity=".2" d="M-389.2 78.515C-509.897 120.555-844.76 394.652-15.56 1006.5c1005.966 24.596 1677.955 201.518 1979.04-22.5 93.69-69.708 321.375-894.45 293.05-903.964-179.033-60.127-460.739-92.224-773.85 16.836-313.112 109.06-651.623 120.421-965.955-18.191-314.33-138.613-724.88-63.226-905.925-.166z"/>
    </g>
</svg>
