<svg xmlns="http://www.w3.org/2000/svg" xmlns:xlink="http://www.w3.org/1999/xlink" width="120" height="29" viewBox="0 0 120 29">
    <defs>
        <path id="a" d="M.316.057h14.011v28.53H.316z"/>
        <path id="c" d="M0 .082h16.167v24.845H0z"/>
    </defs>
    <g fill="none" fill-rule="evenodd">
        <path fill="#52BFD7" d="M4.609 15.81c5.18.264 7.146-.45 7.146-.45 4.893-2.063 3.757-7.228 3.757-7.228-1.256-4.414-5.593-4.64-5.593-4.64l-9.917.022.038 15.58h.335C1.23 15.1 4.61 15.81 4.61 15.81M24.638 18.866l-4.63.063s-4.308.93-2.209 5.474c0 0 .913 1.471 3.322 1.413l7.956-.013-.026-10.833-.34-.005c.03 1.188-.3 3.975-4.073 3.9"/>
        <path fill="#177A92" d="M2.84 28.901c.07.005.14.007.211.007.16 0 .318.003.47-.021v-.207l-.022-9.259v-.099c0-.205.164-.372.368-.376 0 0 .653-.008.653 0l4.844-.012.14-.007c5.213-.012 9.428-4.172 9.416-9.292-.012-5.12-4.247-9.262-9.46-9.25L2.99.392c-.73.001-1.399.26-1.916.689l.176.004 7.832-.018.383-.002c4.833-.011 8.76 3.829 8.771 8.576.011 4.747-3.897 8.605-8.73 8.616l-.142.007-4.708.01-.782.008a1.049 1.049 0 0 0-1.056 1.042v.099l.022 9.485"/>
        <path fill="#177A92" d="M1.473 28.473l-.022-9.047v-.099c-.004-1.319 1.08-2.39 2.418-2.394l.361.001 5.13-.011.137-.007c4.084-.01 7.388-3.27 7.379-7.282-.01-4.012-3.33-7.257-7.413-7.247h-.39l-8.784.02H.16c.08-.24.192-.465.329-.674l.1.004 8.524-.02.349-.001c4.462-.01 8.086 3.534 8.097 7.917.01 4.382-3.597 7.943-8.059 7.954l-.176.006-5.453.011a1.73 1.73 0 0 0-1.737 1.722v.098l.022 9.21-.003.14a2.988 2.988 0 0 1-.678-.304M27.668.959l.034 14.317v.187c.002 1.322-1.086 2.395-2.43 2.399h-.188l-4.116.01-.314.005c-2.514.006-4.548 2.013-4.542 4.483.006 2.47 2.05 4.467 4.563 4.461l.583-.002 7.575-.017.115-.004a2.883 2.883 0 0 1-.314.673l-.101.002-7.269.017-.587.002c-2.891.007-5.24-2.29-5.247-5.13-.008-2.841 2.331-5.149 5.222-5.156l.262.005 4.148-.01h.208c.974-.001 1.762-.78 1.76-1.736l-.003-.174L26.99.645l-.008-.159c.243.08.472.188.682.322l.003.15z"/>
        <g transform="translate(13.714 .28)">
            <mask id="b" fill="#fff">
                <use xlink:href="#a"/>
            </mask>
            <path fill="#177A92" d="M12.587.203l.036 14.816-.002.168a1.06 1.06 0 0 1-1.067 1.053l-.348.002-3.875.009-.361.005h-.033c-3.269.008-5.913 2.616-5.904 5.827.007 3.211 2.663 5.808 5.932 5.8l.582.003 6.59-.016.19-.002a3.008 3.008 0 0 1-1.937.707h-.251l-4.59.01-.583.002c-3.664.009-6.642-2.903-6.65-6.502-.009-3.6 2.954-6.524 6.619-6.533h.22l4.263-.01.134-.006a.35.35 0 0 0 .352-.348l.003-.187L11.872.27l-.005-.197c.148-.023.3-.014.454-.015.09 0 .177.004.265.011l.001.134z" mask="url(#b)"/>
        </g>
        <g transform="translate(0 2.974)">
            <mask id="d" fill="#fff">
                <use xlink:href="#c"/>
            </mask>
            <path fill="#177A92" d="M9.439.082H8.93L0 .102l.001.694.177-.001 8.88-.02.104-.004h.251l.172.002c3.253.067 5.872 2.675 5.88 5.889.008 3.261-2.676 5.91-5.996 5.918l-.138.006-5.019.012-.472.001C1.725 12.604.013 14.29.018 16.365l.015 6.133-.001.518c.004.732.281 1.4.736 1.911l-.006-.34-.019-8.135v-.099c-.005-1.685 1.383-3.055 3.099-3.06l.371-.005 5.081-.011.177-.007c3.707-.009 6.705-2.968 6.696-6.61C16.158 3.018 13.147.073 9.44.082" mask="url(#d)"/>
        </g>
        <path fill="#177A92" d="M29.076 25.464l-.147.002-7.642.017-.602-.003c-1.76.004-3.19-1.395-3.194-3.124-.005-1.728 1.419-3.133 3.179-3.137l.22-.006 4.035-.01.362-.003c2.097-.005 3.794-1.68 3.788-3.74l-.032-12.194a2.895 2.895 0 0 0-.692-1.871l.004.226.032 13.713.002.075c.005 1.717-1.41 3.113-3.157 3.117l-.14.007-4.177.01-.247.005c-2.137.005-3.865 1.71-3.86 3.81.004 2.1 1.741 3.798 3.878 3.792l.578-.001 7.707-.018h.107l-.002-.667zM51.713 4.352H36.862c-1.052 0-1.905.838-1.905 1.871v.91h6.801v16.674c0 1.154.952 2.089 2.126 2.089h.995V7.132h6.834v-2.78zM72.896 21.975v-9.246c0-.016.012-.028.028-.028h3.102a.027.027 0 0 0 .028-.028V10.25a.028.028 0 0 0-.028-.028h-3.102a.028.028 0 0 1-.028-.027v-4.17a.028.028 0 0 0-.028-.027h-2.84a.028.028 0 0 0-.028.027v4.17a.028.028 0 0 1-.028.027H67.45a.028.028 0 0 0-.028.028v2.423c0 .016.013.028.028.028h2.523c.016 0 .028.012.028.028v9.752c0 2.434 1.28 3.797 3.704 3.797.523 0 .957.001 1.332.003l.778.001c.272 0 .518 0 .761-.004l.22-.002v-2.53a.027.027 0 0 0-.028-.028h-2.46c-.937 0-1.411-.587-1.411-1.743M90.498 18.02c0 2.744-1.544 5.698-4.934 5.698s-4.934-2.954-4.934-5.699c0-2.729 1.544-5.666 4.934-5.666s4.934 2.937 4.934 5.666m-4.934-8.224c-4.593 0-7.926 3.459-7.926 8.224 0 4.784 3.333 8.257 7.926 8.257s7.927-3.473 7.927-8.257c0-4.765-3.334-8.224-7.927-8.224M113.88 16.445c-1.936-.455-3.609-.848-3.609-2.096 0-1.287 1.327-2.186 3.226-2.186 1.82 0 3.491.692 4.47 1.85l.19.226 1.395-2.035-.126-.128c-1.033-1.04-2.9-2.281-5.93-2.281-4.139 0-5.992 2.319-5.992 4.617 0 3.304 3.056 4.034 5.752 4.678 2.085.497 3.886.927 3.886 2.41 0 1.485-1.335 2.407-3.484 2.407-2.142 0-4.033-1.058-4.957-2.107l-.186-.212-1.495 2.086.128.13c1.605 1.64 3.774 2.471 6.446 2.471 3.836 0 6.314-1.899 6.314-4.838 0-3.577-3.342-4.362-6.028-4.992M62.109 19.694v.004c-.172 1.234-.663 2.256-1.457 3.035-.78.738-1.652 1.111-2.592 1.111-1.313 0-2.28-.34-2.878-1.01-.578-.648-.87-1.684-.87-3.079V10.25a.028.028 0 0 0-.028-.027h-2.779a.028.028 0 0 0-.028.027v9.622c0 4.249 1.964 6.404 5.837 6.404 1.904 0 3.497-.757 4.744-2.25.017-.02.049-.01.049.016v1.826c0 .016.012.028.028.028h2.778a.028.028 0 0 0 .028-.028V10.25a.028.028 0 0 0-.028-.027h-2.778a.028.028 0 0 0-.028.027l.002 9.444zM102.84 9.812c-1.13 0-2.094.333-2.944 1.014a5.237 5.237 0 0 0-1.202 1.311c-.015.024-.05.014-.05-.013V10.25a.027.027 0 0 0-.028-.027h-2.75a.028.028 0 0 0-.028.027v15.618c0 .016.013.028.028.028h2.75a.027.027 0 0 0 .027-.028v-8.304c0-1.391.384-2.525 1.18-3.473.753-.987 1.682-1.466 2.837-1.466.807 0 1.537.102 2.234.312l.288.087v-2.786l-.136-.057c-.592-.244-1.335-.369-2.207-.369"/>
    </g>
</svg>
