<?xml version="1.0" encoding="UTF-8"?>
<svg width="137px" height="29px" viewBox="0 0 137 29" version="1.1" xmlns="http://www.w3.org/2000/svg" xmlns:xlink="http://www.w3.org/1999/xlink">
    <!-- Generator: sketchtool 52.5 (67469) - http://www.bohemiancoding.com/sketch -->
    <title>9B21FF97-0F5F-4400-9C99-AF7E52B2BA67</title>
    <desc>Created with sketchtool.</desc>
    <g id="ponddy.ai" stroke="none" stroke-width="1" fill="none" fill-rule="evenodd">
        <g id="Ponddy" transform="translate(-1067.000000, -4742.000000)">
            <g id="Group-3" transform="translate(0.000000, 4661.000000)">
                <g id="footer-copy">
                    <g id="Group" transform="translate(718.000000, 81.000000)">
                        <g id="reader-logo" transform="translate(349.000000, 0.000000)">
                            <path d="M101.355326,17.6973353 C101.355326,19.4318765 100.97159,20.8637941 100.21809,21.9494176 C99.3555353,23.1397824 98.1876274,23.7177353 96.6472294,23.7177353 C95.0097045,23.7177353 93.7565975,23.1138529 92.9230104,21.9224647 C92.1766672,20.8474176 91.8137194,19.3940059 91.8137194,17.4789824 C91.8137194,15.5643 92.1855279,14.1334059 92.9495925,13.1040765 L92.9536821,13.0986176 C93.7729557,11.9273588 95.0468512,11.3337118 96.7406075,11.3337118 C98.1317368,11.3337118 99.2195577,11.8734529 100.065073,12.9815941 C100.921493,14.1132765 101.355326,15.5950059 101.355326,17.3855 L101.355326,17.6973353 Z M101.29262,11.0737353 C101.29262,11.2143 101.114384,11.2777588 101.028503,11.1661941 C99.8030005,9.57460588 98.1872866,8.76977059 96.2099881,8.76977059 C93.800901,8.76977059 91.9694632,9.65000588 90.614799,11.4565353 C89.361692,13.0645 88.752008,15.0337706 88.752008,17.4789824 C88.752008,19.9726412 89.3787318,22.0401706 90.6144582,23.6252765 C91.9854806,25.3881353 93.9099557,26.2823588 96.335401,26.2823588 C98.3982393,26.2823588 100.02554,25.5672529 101.188336,24.1554647 C101.276262,24.0486765 101.448704,24.1135 101.448704,24.2513353 L101.448704,25.6958765 C101.448704,25.7784412 101.515841,25.8449706 101.597632,25.8449706 L104.143719,25.8449706 C104.22551,25.8449706 104.291966,25.7784412 104.291966,25.6958765 L104.291966,3.06871176 C104.291966,2.98648824 104.22551,2.91995882 104.143719,2.91995882 L101.441548,2.91995882 C101.359416,2.91995882 101.29262,2.98648824 101.29262,3.06871176 L101.29262,11.0737353 Z" id="Fill-1" fill="#1B7892"></path>
                            <path d="M37.8224965,13.6951988 C37.8224965,13.7774224 37.8889517,13.8442929 37.9714244,13.8442929 L43.4810736,13.8442929 C46.0343174,13.8442929 47.7495438,12.2090341 47.7495438,9.77405765 C47.7495438,7.33942235 46.0343174,5.70382235 43.4810736,5.70382235 L37.9714244,5.70382235 C37.8889517,5.70382235 37.8224965,5.77035176 37.8224965,5.85291647 L37.8224965,13.6951988 Z M48.0419468,25.6739047 L42.2450065,16.6426224 C42.217402,16.5999753 42.1703721,16.5740459 42.1195935,16.5740459 L37.9714244,16.5740459 C37.8889517,16.5740459 37.8224965,16.6405753 37.8224965,16.7227988 L37.8224965,25.5933871 C37.8224965,25.6756106 37.7560413,25.7424812 37.6735687,25.7424812 L37.1770289,25.7424812 C35.861897,25.7424812 34.7955463,24.67494 34.7955463,23.3579988 L34.7955463,5.36094 C34.7955463,4.04263412 35.8632602,2.97372824 37.180096,2.97372824 L43.8126682,2.97372824 C47.9710612,2.97372824 50.8756657,5.77001059 50.8756657,9.77405765 C50.8756657,13.0916576 48.9024567,15.6129518 45.7252154,16.3533047 L45.6498995,16.3707047 L51.7208398,25.5111635 C51.7869542,25.6101047 51.7160687,25.7424812 51.5971308,25.7424812 L48.1670189,25.7424812 C48.1165811,25.7424812 48.0692104,25.7165518 48.0419468,25.6739047 Z" id="Fill-3" fill="#1B7892"></path>
                            <path d="M66.0805868,16.2053706 L56.2595271,16.2053706 C56.169557,16.2053706 56.097649,16.1272412 56.1095769,16.0385353 C56.3808505,13.9938647 57.8582012,11.2982294 61.1448381,11.2982294 C64.606644,11.2982294 66.0400321,14.0010294 66.2308779,16.0439941 C66.239057,16.1313353 66.1681714,16.2053706 66.0805868,16.2053706 M61.1782361,8.73735882 C56.4813853,8.73735882 52.9398331,12.4984882 52.9398331,17.4858059 C52.9398331,22.6563353 56.4520769,26.2673471 61.4808629,26.2673471 C64.0835221,26.2673471 66.372649,25.3717588 68.101848,23.6767941 L68.2490719,23.5328176 L66.7512734,21.4925824 L66.5559973,21.6931941 C65.308343,22.9726059 63.5321142,23.7061353 61.6826142,23.7061353 C58.2637485,23.7061353 56.473547,21.2732059 56.1446789,18.7331471 C56.1330918,18.6437588 56.204659,18.5642647 56.2946291,18.5642647 L69.0666415,18.5642647 C69.1487734,18.5642647 69.2152286,18.4977353 69.2152286,18.4155118 L69.2152286,17.6871 C69.2152286,12.3340412 65.9855047,8.73735882 61.1782361,8.73735882" id="Fill-5" fill="#1B7892"></path>
                            <path d="M120.678188,16.2053706 L110.857469,16.2053706 C110.767499,16.2053706 110.695591,16.1272412 110.707519,16.0385353 C110.979133,13.9938647 112.455802,11.2982294 115.743121,11.2982294 C119.204927,11.2982294 120.638315,14.0010294 120.82882,16.0439941 C120.836999,16.1313353 120.765773,16.2053706 120.678188,16.2053706 M115.776178,8.73735882 C111.079668,8.73735882 107.537434,12.4984882 107.537434,17.4858059 C107.537434,22.6563353 111.050019,26.2673471 116.079146,26.2673471 C118.681464,26.2673471 120.970932,25.3717588 122.69979,23.6767941 L122.846673,23.5328176 L121.349215,21.4922412 L121.153939,21.6931941 C119.906967,22.9726059 118.130738,23.7061353 116.281238,23.7061353 C112.86135,23.7061353 111.07183,21.2732059 110.742962,18.7331471 C110.731375,18.6437588 110.802942,18.5642647 110.892912,18.5642647 L123.664924,18.5642647 C123.746715,18.5642647 123.813511,18.4977353 123.813511,18.4155118 L123.813511,17.6871 C123.813511,12.3340412 120.583788,8.73735882 115.776178,8.73735882" id="Fill-7" fill="#1B7892"></path>
                            <path d="M79.369655,18.1024824 C75.8386674,18.1635529 74.1227595,19.2761294 74.1227595,21.5040118 C74.1227595,22.2037647 74.387558,22.7421412 74.9563465,23.1972706 C75.5544435,23.6459176 76.3335032,23.8731412 77.2727371,23.8731412 C78.7596301,23.8731412 80.0471575,23.3975412 81.2102943,22.4183647 C82.3253789,21.4835412 82.8907595,20.4074706 82.8907595,19.2212 L82.8907595,18.1946 C82.8907595,18.1110118 82.822941,18.0441412 82.7397868,18.0455059 L79.369655,18.1024824 Z M76.7410953,26.2320353 C75.0636973,26.2320353 73.7557221,25.8181882 72.7411724,24.9672941 C71.6996998,24.0884235 71.1714659,22.9437765 71.1714659,21.5661059 C71.1714659,19.6292471 71.9270107,18.2150706 73.4820629,17.2423765 C74.8326376,16.3413294 76.7591575,15.8688 79.2077769,15.8367294 L82.7442172,15.7804353 C82.8256674,15.7790706 82.8907595,15.7128824 82.8907595,15.6316824 L82.8907595,15.1250353 C82.8907595,12.5208353 81.5742644,11.2550706 78.8662993,11.2550706 C77.6748764,11.2550706 76.7598391,11.4795647 76.0680231,11.9408353 C75.2736276,12.4123412 74.7675455,13.1318824 74.5235356,14.1393765 L74.4846848,14.3000706 L71.6315405,14.0827412 L71.6755032,13.8664353 C72.0326575,12.1144941 72.9030505,10.7992588 74.2641898,9.95689412 C75.4944634,9.17969412 77.0505381,8.80167059 79.022043,8.80167059 C81.4025032,8.80167059 83.1255679,9.41544706 84.2904087,10.6778 C85.2793988,11.7999294 85.7796873,13.3266941 85.7796873,15.2188588 L85.7796873,25.6458941 C85.7796873,25.7284588 85.7128913,25.7949882 85.6307595,25.7949882 L83.1954311,25.7949882 C83.1132993,25.7949882 83.046844,25.7284588 83.046844,25.6458941 L83.046844,23.4456471 L82.9715281,23.5312824 C82.4044435,24.1764471 81.6972918,24.7397294 80.8674535,25.2064588 C79.6382022,25.8867647 78.2494585,26.2320353 76.7410953,26.2320353 Z" id="Fill-9" fill="#1B7892"></path>
                            <path d="M136.578435,9.13094 C135.957505,8.86959882 135.179808,8.73756353 134.267498,8.73756353 C133.085617,8.73756353 132.075838,9.09272824 131.184657,9.81909294 C130.804328,10.1131871 130.457057,10.4738106 130.146251,10.8978929 C130.061734,11.0132106 129.879408,10.9541871 129.879408,10.8108929 L129.879408,9.32370471 C129.879408,9.24182235 129.812612,9.17529294 129.73048,9.17529294 L127.084881,9.17529294 C127.002408,9.17529294 126.935953,9.24182235 126.935953,9.32370471 L126.935953,25.6674224 C126.935953,25.7496459 127.002408,25.8161753 127.084881,25.8161753 L129.73048,25.8161753 C129.812612,25.8161753 129.879408,25.7496459 129.879408,25.6674224 L129.879408,17.0114341 C129.879408,15.5276576 130.280866,14.3192106 131.11309,13.3072812 C131.900669,12.2561165 132.871938,11.7453753 134.079719,11.7453753 C134.911261,11.7453753 135.697478,11.8576224 136.416557,12.0787047 L136.723955,12.1735518 L136.723955,9.19269294 L136.578435,9.13094 Z" id="Fill-11" fill="#1B7892"></path>
                            <path d="M4.59253308,15.6739541 C9.60189378,15.9332482 11.5826002,15.2536247 11.6800679,15.2188247 C11.6844983,15.2171188 11.6858614,15.2164365 11.6902918,15.2147306 C16.469956,13.1567541 15.4523391,8.06162471 15.418941,7.90058941 C15.4179187,7.89615412 15.4175779,7.89444824 15.4162147,7.89001294 C14.1811699,3.48030706 9.96620473,3.20190706 9.86158035,3.19576588 C9.85817239,3.19542471 9.85783159,3.19576588 9.85442363,3.19576588 L0.151279353,3.21862471 C0.0691475124,3.21862471 0.00235149254,3.28549529 0.00269228856,3.36806 L0.0398390547,19.0004247 L0.373137562,18.9997424 C1.19479677,15.0813306 4.37544602,15.6336953 4.57140373,15.6715659 C4.57890124,15.6729306 4.58537637,15.6736129 4.59253308,15.6739541" id="Fill-14" fill="#50C0E1"></path>
                            <path d="M24.4898405,18.7695165 L19.9034077,18.8333165 C19.8918206,18.8336576 19.8819376,18.8346812 19.8706913,18.8374106 C19.5864674,18.9063282 15.6877609,19.9404341 17.6865296,24.3671988 C17.6902784,24.3757282 17.6940271,24.3825518 17.6987983,24.3900576 C17.787746,24.5258459 18.7211863,25.8656459 20.9942958,25.8096929 L28.7531988,25.7967282 C28.8353306,25.7967282 28.901445,25.7295165 28.901445,25.6472929 L28.8758853,14.8227871 L28.5388381,14.8176694 C28.5684873,16.0216812 28.2396192,18.8445753 24.4898405,18.7695165" id="Fill-16" fill="#50C0E1"></path>
                            <path d="M2.82199552,28.9348353 C2.89185871,28.9396118 2.96206269,28.942 3.03294826,28.942 C3.1921,28.9413176 3.34852537,28.9450706 3.5005204,28.9205059 L3.49949801,28.7110235 L3.47768706,19.3320824 L3.47802786,19.2321176 C3.47768706,19.0243412 3.64058756,18.8551176 3.84370199,18.8506824 C3.84370199,18.8506824 4.49257761,18.8424941 4.49257761,18.85 L9.30768458,18.8387412 L9.44741095,18.8319176 C14.6285328,18.8196353 18.8182791,14.6050824 18.8060104,9.41851765 C18.7937418,4.23195294 14.5842294,0.0371882353 9.40344826,0.0494705882 L2.97092338,0.0556117647 C2.24502786,0.0573176471 1.58047562,0.319682353 1.06621443,0.754 L1.24104279,0.758094118 L9.02618706,0.739670588 L9.40719701,0.737964706 C14.2107169,0.726705882 18.1138537,4.61611765 18.1254408,9.42465882 C18.1366871,14.2338824 14.2519532,18.1413765 9.44843333,18.1526353 L9.30632139,18.1594588 L4.62719204,18.1703765 L3.84915473,18.1782235 C3.26809751,18.1795882 2.7981398,18.6517765 2.79950299,19.2334824 L2.79916219,19.3334471 L2.82165473,28.942" id="Fill-18" fill="#1B7892"></path>
                            <path d="M1.46382114,28.5010294 L1.442351,19.3370294 L1.4416694,19.2370647 C1.43860224,17.9010176 2.51483607,16.8153941 3.84564453,16.8119824 L4.20484353,16.8130059 L9.30315199,16.8010647 L9.44015199,16.7945824 C13.4997142,16.7850294 16.7832838,13.4824412 16.7740823,9.41800588 C16.7641993,5.35391176 13.4652938,2.06667647 9.40573159,2.07657059 L9.01926891,2.07725294 L0.287393284,2.09772353 L0.158231592,2.09806471 C0.237977861,1.85480588 0.348736567,1.62587647 0.484714179,1.41468824 L0.584908209,1.41844118 L9.05743806,1.39865294 L9.40402761,1.39728824 C13.8388062,1.38671176 17.4417017,4.97725294 17.4522664,9.41664118 C17.4628311,13.8560294 13.8766346,17.4632882 9.44185597,17.4738647 L9.26668682,17.4803471 L3.84700771,17.4916059 C2.89107488,17.4939941 2.1184903,18.2746059 2.12053507,19.2353588 L2.12053507,19.3353235 L2.14234602,28.6641118 L2.13859726,28.8067235 C1.89969925,28.7320059 1.67375149,28.6279471 1.46484353,28.4983" id="Fill-20" fill="#1B7892"></path>
                            <path d="M27.5017617,0.630187059 L27.5358413,15.1332576 L27.5344781,15.3226106 C27.5375453,16.6613871 26.4561995,17.7490576 25.1192567,17.7524694 L24.9331821,17.7531518 L20.8422667,17.7627047 L20.5297567,17.7678224 C18.0306995,17.7739635 16.0090975,19.8066929 16.0152318,22.3088812 C16.0210254,24.8107282 18.0518289,26.8342459 20.5508861,26.8281047 L21.1298985,26.8260576 L28.659105,26.8086576 L28.774294,26.8042224 C28.6989781,27.0461165 28.5929905,27.2747047 28.4614433,27.4858929 L28.3612493,27.4886224 L21.1363736,27.50534 L20.55259,27.5077282 C17.6786572,27.5145518 15.3435229,25.1877282 15.336707,22.3102459 C15.3295502,19.4331047 17.6541199,17.0953635 20.5280527,17.0881988 L20.7877393,17.0936576 L24.9110303,17.0841047 L25.1175527,17.0841047 C26.086095,17.0820576 26.8695851,16.29394 26.8668587,15.3243165 L26.8641323,15.1482694 L26.8286896,0.312210588 L26.8208512,0.151857647 C27.061794,0.231692941 27.2894458,0.341892941 27.4986945,0.478022353 L27.5017617,0.630187059 Z" id="Fill-22" fill="#1B7892"></path>
                            <path d="M26.1435532,0.147422353 L26.178996,15.1561165 L26.1769512,15.3260224 C26.1783144,15.9142106 25.7032448,16.3918576 25.1160532,16.3932224 L24.7701453,16.3949282 L20.9188095,16.4037988 L20.5596104,16.4089165 L20.5265532,16.4089165 C17.2777448,16.4167635 14.6498667,19.0595165 14.6580458,22.3119518 C14.6652025,25.5643871 17.3053493,28.1948576 20.5544985,28.1873518 L21.1331701,28.18974 L27.6846328,28.1740459 L27.8727522,28.1716576 C27.3554239,28.6162106 26.6823517,28.88574 25.9469139,28.8874459 L25.6974512,28.8881282 L21.1345333,28.8987047 L20.5558617,28.9000694 C16.9137746,28.90894 13.9539612,25.9598106 13.9454413,22.3136576 C13.9372622,18.6671635 16.8824214,15.7047282 20.5248493,15.6958576 L20.7443219,15.6951753 L24.981098,15.6852812 C25.2493045,15.6743635 25.462302,15.4553282 25.4663915,15.1864812 L25.4670731,15.1380341 L25.4319711,0.215657647 L25.4275408,0.0157282353 C25.5747647,-0.00678941176 25.7250557,0.00174 25.8790955,0.00139882353 C25.9673617,0.00105764706 26.0549463,0.00515176471 26.1418493,0.0123164706 L26.1435532,0.147422353 Z" id="Fill-24" fill="#1B7892"></path>
                            <path d="M9.38197811,2.75455647 L8.87623682,2.75455647 L0.148450746,2.77400353 C0.0663189055,2.77400353 -0.000136318408,2.84087412 0.000204477612,2.92309765 L0.00122686567,3.47819176 L0.177077612,3.47682706 L9.00437612,3.45601529 L9.10661493,3.45226235 L9.35641841,3.45192118 L9.52681642,3.45430941 C12.7602891,3.52288588 15.3643114,6.16461529 15.3721498,9.42012118 C15.3799881,12.7233918 12.7115552,15.4074271 9.41196816,15.4152741 L9.27462736,15.4214153 L4.28639602,15.4330153 L3.8171199,15.4340388 C1.71406766,15.4391565 0.0131547264,17.1470859 0.0182666667,19.2487329 L0.0329208955,25.4615565 L0.0312169154,25.9859447 C0.0353064677,26.7273212 0.311010448,27.4038741 0.763246766,27.9224624 L0.75779403,27.5771918 L0.738709453,19.3370976 L0.738027861,19.2371329 C0.733938308,17.5295447 2.1131398,16.14198 3.81882388,16.1378859 L4.18790597,16.1324271 L9.23816219,16.1204859 L9.41367214,16.1136624 C13.0983587,16.1051329 16.0786199,13.1075565 16.0701,9.41807412 C16.0612393,5.72927412 13.0670055,2.74568588 9.38197811,2.75455647" id="Fill-26" fill="#1B7892"></path>
                            <path d="M28.9012065,25.4534365 L28.755005,25.4548012 L21.1590025,25.4728835 L20.5602239,25.4691306 C18.8109179,25.4732247 17.3894577,24.05666 17.3853682,22.3054012 C17.3809378,20.5544835 18.7962637,19.1310953 20.5452289,19.1270012 L20.7650423,19.12086 L24.7755299,19.1116482 L25.1347289,19.1075541 C27.2193781,19.1027776 28.9056368,17.4067894 28.9005249,15.3198129 L28.8681493,2.96786 C28.8661045,2.24627176 28.6084627,1.58575412 28.1807637,1.07194235 L28.1841716,1.30121294 L28.2165473,15.1915306 L28.218592,15.2679541 C28.2230224,17.0076129 26.8175796,18.4211071 25.0798607,18.4252012 L24.9404751,18.4320247 L20.7895796,18.4419188 L20.5438657,18.4473776 C18.4193433,18.4521541 16.7013905,20.1805541 16.7068433,22.3067659 C16.7112736,24.4340012 18.4377463,26.1538718 20.5619279,26.1484129 L21.1358284,26.1470482 L28.7962413,26.1289659 L28.9029104,26.1296482 L28.9012065,25.4534365 Z" id="Fill-28" fill="#1B7892"></path>
                        </g>
                    </g>
                </g>
            </g>
        </g>
    </g>
</svg>